<svg viewBox="2.00 7.00 60.00 60.00" xmlns="http://www.w3.org/2000/svg" aria-hidden="true" focusable="false" fill="none" stroke="currentColor" stroke-width="1.8" stroke-linecap="round" stroke-linejoin="round"><path d="M18 28h28c0 4-1 6-3 8-4 5-5 10-5 16 0 6 2 10 6 12H20c4-2 6-6 6-12 0-6-1-11-5-16-2-2-3-4-3-8z" fill="currentColor" opacity=".2"/><path d="M18 28h28"/><path d="M24 24c2-4 5-6 8-6s6 2 8 6" /><path d="M22 20c4 2 16 2 20 0" opacity=".4"/><ellipse cx="32" cy="14" rx="9" ry="4" opacity=".35"/><path d="M20 46h24" opacity=".45"/></svg>
