<svg viewBox="7.00 20.50 50.00 50.00" xmlns="http://www.w3.org/2000/svg" aria-hidden="true" focusable="false" fill="none" stroke="currentColor" stroke-width="1.8" stroke-linecap="round" stroke-linejoin="round"><path d="M14 42h36c0 8-8 12-18 12s-18-4-18-12z" fill="currentColor" opacity=".2"/><path d="M14 42h36"/><path d="M18 46c8 4 20 4 28 0" opacity=".45"/><path d="M22 42c0-5 2-7 2-7s2 2 2 7c0 2-1 3-2 3s-2-1-2-3z" fill="currentColor"/><path d="M42 42c0-5 2-7 2-7s2 2 2 7c0 2-1 3-2 3s-2-1-2-3z" fill="currentColor"/><path d="M32 42c0-6 2-9 2-9s2 3 2 9c0 2-1 3-2 3s-2-1-2-3z" fill="currentColor" opacity=".85"/><path d="M10 58h44" opacity=".45"/></svg>
