<svg xmlns="http://www.w3.org/2000/svg" viewBox="0 0 200 240" width="200" height="240" role="img"><title>Hawa Mahal arch</title><path d="M14 236V96C14 50 56 12 100 12s86 38 86 84v140" fill="none" stroke="#c9a227" stroke-width="3" opacity=".85"/><path d="M30 236V100c0 -38 34 -70 70 -70s70 32 70 70v136" fill="none" stroke="#e6c766" stroke-width="1.4" opacity=".5"/><path d="M30 102q8.8 -6.6 17.5 0" fill="none" stroke="#c9a227" stroke-width="1.1" opacity=".4"/><path d="M48 103q8.8 -11.0 17.5 0" fill="none" stroke="#c9a227" stroke-width="1.1" opacity=".4"/><path d="M65 104q8.8 -15.4 17.5 0" fill="none" stroke="#c9a227" stroke-width="1.1" opacity=".4"/><path d="M82 105q8.8 -19.8 17.5 0" fill="none" stroke="#c9a227" stroke-width="1.1" opacity=".4"/><path d="M100 106q8.8 -24.2 17.5 0" fill="none" stroke="#c9a227" stroke-width="1.1" opacity=".4"/><path d="M118 99q8.8 -19.8 17.5 0" fill="none" stroke="#c9a227" stroke-width="1.1" opacity=".4"/><path d="M135 92q8.8 -15.4 17.5 0" fill="none" stroke="#c9a227" stroke-width="1.1" opacity=".4"/><path d="M152 85q8.8 -11.0 17.5 0" fill="none" stroke="#c9a227" stroke-width="1.1" opacity=".4"/><path d="M170 78q8.8 -6.6 17.5 0" fill="none" stroke="#c9a227" stroke-width="1.1" opacity=".4"/><circle cx="100" cy="62" r="18.45" fill="none" stroke="#e8890c" stroke-width="4.50" opacity=".5"/><circle cx="113.50" cy="62.00" r="7.02" fill="#e8890c" opacity=".9"/><circle cx="110.92" cy="69.94" r="7.02" fill="#e8890c" opacity=".9"/><circle cx="104.17" cy="74.84" r="7.02" fill="#e8890c" opacity=".9"/><circle cx="95.83" cy="74.84" r="7.02" fill="#e8890c" opacity=".9"/><circle cx="89.08" cy="69.94" r="7.02" fill="#e8890c" opacity=".9"/><circle cx="86.50" cy="62.00" r="7.02" fill="#e8890c" opacity=".9"/><circle cx="89.08" cy="54.06" r="7.02" fill="#e8890c" opacity=".9"/><circle cx="95.83" cy="49.16" r="7.02" fill="#e8890c" opacity=".9"/><circle cx="104.17" cy="49.16" r="7.02" fill="#e8890c" opacity=".9"/><circle cx="110.92" cy="54.06" r="7.02" fill="#e8890c" opacity=".9"/><circle cx="100" cy="62" r="8.55" fill="#f7b93b"/><circle cx="100" cy="62" r="4.50" fill="#f7b93b" opacity=".65"/><circle cx="100" cy="18" r="6" fill="none" stroke="#c9a227" stroke-width="2" opacity=".8"/><path d="M100 8v-6" stroke="#c9a227" stroke-width="2" stroke-linecap="round"/></svg>
